<svg width="76" height="70" viewBox="0 0 76 70" fill="none" xmlns="http://www.w3.org/2000/svg">
<g clip-path="url(#clip0_238_2009)">
<path d="M75.0043 59.7108C75.0043 59.6546 75.0043 59.5984 75.0043 59.5984V59.5421L63.7028 39.9759L69.269 30.3052V30.249V30.1927V30.1365V30.0803V30.0241V29.9678L52.1205 0.2249C52.1205 0.2249 52.1205 0.224899 52.0642 0.168675L52.008 0.11245L51.9518 0.0562249C51.9518 0.0562249 51.8956 0.0562249 51.8956 0C51.8393 0 51.8393 0 51.7831 0H51.7269H40.3133H40.257H40.2008H40.1446C40.1446 0 40.0884 0 40.0884 0.0562249C40.0884 0.0562249 40.0884 0.0562249 40.0322 0.11245C40.0322 0.11245 40.0322 0.11245 39.9759 0.168675L28.6747 19.7912H17.4859H17.4297H17.3735H17.3173C17.3173 19.7912 17.261 19.7912 17.261 19.8474C17.261 19.8474 17.2048 19.8474 17.2048 19.9036C17.2048 19.9036 17.2048 19.9036 17.1486 19.9599L0 49.6466V49.7028V49.759V49.8153V49.8715C0 49.9277 0 49.9277 0 49.9277V49.9839L5.73494 59.8795C5.73494 59.8795 5.73494 59.9357 5.79116 59.9357L5.84739 59.992C5.84739 59.992 5.84739 59.992 5.90361 60.0482C5.95984 60.1044 6.01606 60.1045 6.07229 60.1045H28.6747L34.241 69.7751C34.241 69.7751 34.241 69.8313 34.2972 69.8313L34.3534 69.8876C34.3534 69.8876 34.3534 69.8876 34.4096 69.9438C34.4658 70 34.5221 70 34.5783 70H68.8193C68.8755 70 68.9317 70 68.9879 69.9438C68.9879 69.9438 69.0441 69.9438 69.0441 69.8876C69.1004 69.8313 69.1004 69.8313 69.1566 69.7751L74.8916 59.8795V59.8233V59.767C75.0043 59.8233 75.0043 59.8233 75.0043 59.7108C75.0043 59.767 75.0043 59.767 75.0043 59.7108ZM68.6506 69.2129H35.3655L40.5944 60.1607H73.8794L68.6506 69.2129ZM23.6707 49.8715L28.8996 40.8193L39.8072 59.767L34.5783 68.8193L23.6707 49.8715ZM73.8234 59.3173H40.5381L29.6305 40.3695H40.0884L45.6546 50.0401C45.6546 50.0401 45.6546 50.0964 45.7108 50.0964L45.767 50.1526C45.767 50.1526 45.767 50.1526 45.8233 50.2088C45.8795 50.265 45.9357 50.265 45.9919 50.265H57.4056C57.4619 50.265 57.5181 50.265 57.5743 50.2088C57.5743 50.2088 57.6305 50.2088 57.6305 50.1526C57.6867 50.0964 57.6867 50.0964 57.743 50.0401L63.0843 40.763L73.8234 59.3173ZM0.843374 49.8715L17.4859 21.0281L22.7149 30.0803L6.07229 58.9237L0.843374 49.8715ZM23.4458 29.6867L18.2169 20.6345H28.8996H40.0884L45.3173 29.6867H23.4458ZM46.3856 30.3052C46.3856 30.249 46.3856 30.249 46.4418 30.249V30.1927V30.1365V30.0803V30.0241V29.9678L40.7068 20.0161C40.7068 20.0161 40.7068 20.0161 40.6506 19.9599L40.5944 19.9036L40.5381 19.8474C40.5381 19.8474 40.4819 19.8474 40.4819 19.7912C40.4257 19.7912 40.4257 19.7912 40.3695 19.7912H40.3133H29.6305L40.3133 1.29317L56.9558 30.1365L46.0482 49.0281L40.8193 39.9759L46.3856 30.3052ZM51.502 0.843374L68.1446 29.6867H57.6867L41.0441 0.843374H51.502ZM57.1807 49.4217H46.7791L57.6867 30.4739H68.1446L57.1807 49.4217ZM6.80321 59.3173L23.4458 30.4739H45.3173L40.0884 39.5261H28.8996H28.8434H28.7871H28.7309C28.7309 39.5261 28.6747 39.5261 28.6747 39.5823C28.6747 39.5823 28.6184 39.5823 28.6184 39.6385C28.6184 39.6385 28.6184 39.6385 28.5622 39.6948L22.8273 49.6466V49.7028V49.759V49.8153V49.8715C22.8273 49.9277 22.8273 49.9277 22.8273 49.9277V49.9839L28.1687 59.261H6.80321V59.3173Z" fill="#5E29F9"/>
</g>
<defs>
<clipPath id="clip0_238_2009">
<rect width="75.6" height="70" fill="white"/>
</clipPath>
</defs>
</svg>
