<svg width="50" height="70" viewBox="0 0 50 70" fill="none" xmlns="http://www.w3.org/2000/svg">
<g clip-path="url(#clip0_238_1996)">
<path d="M49.1045 8.00996V7.42952L42.3715 3.59867L27.6285 12.073L6.733 0L0 3.83085V45.5058L6.26865 49.1045V66.1692L13.0017 70L27.6285 61.5257L36.1029 66.4013L42.8358 62.5705V52.8193L49.1045 49.2206V8.00996ZM41.9071 20.3151L40.9784 19.7347L41.9071 19.1542V20.3151ZM42.3715 4.64345L47.7114 7.77777L33.8972 15.7877L28.5572 12.6534L42.3715 4.64345ZM6.733 1.04478L41.5589 21.1277L36.2189 24.262L1.27695 4.06302L6.733 1.04478ZM7.08127 65.7048V25.4229L12.4212 28.5572V68.7231L7.08127 65.7048ZM20.5472 23.4494L12.8856 27.8607L7.54558 24.7264L15.0912 20.3151L20.5472 23.4494ZM13.3499 20.3151V19.2703L14.2786 19.8507L13.3499 20.3151ZM12.5373 18.806V20.8955L7.19733 24.0299V15.7877L12.5373 18.806ZM13.3499 68.8391V28.5572L21.3599 23.9137L26.6998 27.0481L18.6899 31.6915V59.4362L21.3599 57.927L26.6998 61.0613L13.3499 68.8391ZM19.6186 48.6401V42.3715L29.4859 48.0597V54.3283L19.6186 48.6401ZM29.4859 47.131L19.6186 41.4428V32.1559L27.6285 27.5125L29.3698 28.5572V47.131H29.4859ZM19.6186 56.8823L20.5472 57.4627L19.6186 58.0431V56.8823ZM22.2886 57.4627L19.6186 55.9536V49.6849L30.2985 55.8375V28.0929L6.26865 14.1625V48.1758L0.92869 45.0414V4.87562L35.7545 24.9586V65.1244L22.2886 57.4627ZM41.9071 62.1062L36.5672 65.2405V24.9586L41.9071 21.8242V62.1062ZM48.1758 48.6401L42.8358 51.7744V17.7612L40.1659 19.2703L34.8258 16.252L48.2919 8.47427V48.6401H48.1758Z" fill="#5E29F9"/>
</g>
<defs>
<clipPath id="clip0_238_1996">
<rect width="49.7" height="70" fill="white"/>
</clipPath>
</defs>
</svg>
