<svg width="82" height="70" viewBox="0 0 82 70" fill="none" xmlns="http://www.w3.org/2000/svg">
<mask id="mask0_238_2001" style="mask-type:luminance" maskUnits="userSpaceOnUse" x="0" y="0" width="81" height="70">
<path d="M80.8024 0H0V70H80.8024V0Z" fill="white"/>
</mask>
<g mask="url(#mask0_238_2001)">
<path d="M80.5147 34.2798L72.7363 20.7407H65.535L69.1358 14.1152L61.07 0H44.6502L40.4732 7.34566L36.2963 0H19.8766L11.8107 14.1152L15.5555 20.5967H8.20988L0 34.8559L8.20988 48.9712H15.8436L11.8107 55.8848L20.0206 70H36.2963L40.4732 62.6543L44.6502 70H60.9259L69.1358 55.8848L65.1029 48.9712H72.5928L80.8024 34.8559L80.5147 34.2798ZM45.9465 68.9918L53.1481 56.4609H67.5515L60.3498 68.9918H45.9465ZM45.0823 68.4156L41.1934 61.6461L44.5061 55.8848L41.1934 50.1234L45.0823 43.3539L52.284 55.8848L45.0823 68.4156ZM21.1728 68.9918L28.3745 56.4609H42.7778L35.5761 68.9918H21.1728ZM20.3086 68.4156L13.107 55.8848L17.1399 48.9712H23.4774L27.5103 55.8848L20.3086 68.4156ZM9.36215 47.819L16.5638 35.288H30.9671L23.7654 47.819H9.36215ZM8.49793 47.3869L1.2963 34.8559L8.49793 22.3251L15.6996 34.8559L8.49793 47.3869ZM9.36215 21.749H16.1317L19.8766 28.2304H27.5103L30.9671 34.2798H16.5638L9.36215 21.749ZM21.1728 1.15226H35.5761L39.7531 8.49793L36.7284 13.6831H28.2304L21.1728 1.15226ZM45.9465 1.15226H60.3498L67.5515 13.6831H53.1481L45.9465 1.15226ZM60.3498 41.7696H53.2922L49.2593 34.8559L56.4609 22.3251L63.6626 34.8559L60.3498 41.7696ZM44.6502 41.7696L40.4732 49.1152L36.2963 41.7696H28.6626L32.6955 34.8559L28.9506 28.3745H36.2963L40.4732 21.0288L44.6502 28.3745H51.8519L48.107 34.8559L52.1399 41.7696H44.6502ZM36.8724 55.3086H28.3745L24.4856 48.6831L27.9424 42.7778H35.5761L42.7778 55.3086H36.8724ZM21.1728 27.2222L28.3745 14.6914H36.8724L39.8971 19.8766L35.7202 27.2222H21.1728ZM64.8148 34.2798L57.6132 21.749H72.0167L79.2183 34.2798H64.8148ZM56.893 20.5967H56.3169L52.572 27.0782H46.0905L53.2922 14.5473H67.6955L64.2387 20.5967H56.893ZM45.3704 2.30453L52.284 14.2593L45.0823 26.7901L37.8806 14.2593L45.0823 1.7284L45.3704 2.30453ZM20.5967 2.30453L27.5103 14.2593L20.3086 26.7901L12.963 14.1152L20.1646 1.58436L20.5967 2.30453ZM53.1481 55.3086L45.9465 42.7778H60.3498L67.5515 55.3086H53.1481ZM62.6543 44.6502L61.358 42.3457L64.8148 35.4321H79.2183L72.0167 47.963H64.5268L62.6543 44.6502Z" fill="#5E29F9"/>
</g>
</svg>
